<?xml version="1.0" standalone="no"?>
<!DOCTYPE svg PUBLIC "-//W3C//DTD SVG 20010904//EN"
 "http://www.w3.org/TR/2001/REC-SVG-20010904/DTD/svg10.dtd">
<svg version="1.0" xmlns="http://www.w3.org/2000/svg"
 width="2000.000000pt" height="2000.000000pt" viewBox="0 0 2000.000000 2000.000000"
 preserveAspectRatio="xMidYMid meet">
<metadata>
Created by potrace 1.16, written by Peter Selinger 2001-2019
</metadata>
<g transform="translate(0.000000,2000.000000) scale(0.100000,-0.100000)"
fill="#000000" stroke="none">
<path d="M0 10000 l0 -10000 10000 0 10000 0 0 10000 0 10000 -10000 0 -10000
0 0 -10000z m4464 1283 c28 -3 58 -15 71 -27 12 -12 33 -31 46 -43 49 -45 61
-62 66 -100 4 -30 1 -42 -16 -57 -12 -11 -21 -30 -21 -43 0 -13 -7 -26 -15
-29 -8 -3 -28 -30 -45 -59 -17 -29 -61 -84 -98 -123 -38 -38 -80 -89 -95 -113
-14 -24 -56 -75 -92 -112 -36 -38 -81 -92 -100 -120 -18 -29 -75 -94 -124
-146 -50 -51 -93 -103 -97 -115 -4 -11 -14 -28 -23 -37 -98 -98 -170 -178
-175 -195 -4 -12 -47 -65 -96 -119 -49 -54 -92 -107 -96 -119 -6 -21 -11 -27
-55 -75 -19 -20 -24 -40 -27 -107 -4 -75 -3 -83 16 -93 11 -6 22 -23 24 -38 2
-19 13 -32 33 -43 17 -8 34 -21 38 -27 6 -10 47 -13 148 -13 115 0 141 3 145
15 4 8 14 15 25 15 10 0 30 11 45 25 15 14 30 25 34 25 4 0 10 8 14 18 7 20
71 109 101 138 50 51 112 124 125 149 8 16 38 51 65 79 28 28 66 75 84 104 19
28 38 52 43 52 4 0 8 5 8 11 0 6 26 36 58 68 32 32 62 65 65 74 4 10 10 17 15
17 5 0 15 14 22 30 7 17 17 30 22 30 5 0 11 7 14 15 9 22 117 137 230 245 12
11 35 20 51 20 17 0 42 9 56 20 22 17 40 20 141 20 105 0 117 -2 128 -20 9
-13 24 -20 45 -20 23 0 33 -5 33 -15 0 -9 12 -20 26 -25 14 -6 32 -17 40 -25
9 -8 22 -15 30 -15 8 0 44 -31 82 -69 82 -84 102 -110 102 -133 0 -9 9 -22 20
-28 13 -7 20 -21 20 -40 0 -20 5 -30 15 -30 8 0 17 -11 21 -24 3 -14 14 -32
25 -42 12 -11 19 -30 19 -54 0 -30 4 -39 21 -43 19 -5 21 -10 14 -53 -6 -42
-4 -49 16 -65 20 -15 24 -27 25 -78 1 -48 5 -65 20 -75 18 -14 19 -36 22 -482
l3 -467 -27 -28 c-32 -34 -79 -43 -156 -30 -38 7 -79 6 -120 0 -77 -13 -147
-4 -155 19 -3 9 -13 25 -21 34 -13 15 -15 84 -18 444 -3 357 -6 429 -18 443
-8 9 -18 28 -21 44 -4 15 -11 27 -16 27 -5 0 -19 11 -31 25 -12 14 -27 25 -34
25 -7 0 -14 5 -16 12 -2 6 -29 15 -59 20 -67 11 -77 11 -162 2 l-69 -7 -101
-101 c-100 -100 -147 -156 -147 -174 0 -6 -36 -47 -80 -93 -44 -46 -80 -88
-80 -92 0 -26 -301 -339 -350 -365 -64 -33 -80 -44 -80 -52 0 -5 -33 -25 -72
-45 -40 -19 -80 -39 -88 -44 -69 -37 -102 -51 -117 -51 -10 0 -26 -9 -36 -20
-12 -14 -29 -20 -60 -20 -23 0 -53 -7 -65 -16 -20 -13 -54 -16 -220 -15 -180
2 -198 3 -217 21 -13 12 -35 20 -57 20 -27 0 -37 5 -41 20 -3 13 -14 20 -29
20 -30 1 -78 43 -78 70 0 11 -9 28 -20 37 -11 10 -20 25 -20 34 0 9 -9 28 -20
42 -11 14 -20 40 -20 59 0 18 -9 50 -20 71 -28 52 -28 204 0 262 13 28 19 62
20 110 0 58 4 74 20 88 14 12 20 29 20 60 0 30 6 47 20 60 13 11 20 29 20 52
0 22 8 43 20 55 11 11 20 30 20 43 0 12 9 28 20 35 11 7 20 18 20 26 0 8 7 16
15 20 8 3 15 14 15 24 0 17 17 42 65 93 8 9 15 23 15 31 0 9 17 34 37 55 41
41 83 99 83 112 0 5 25 35 55 67 31 32 58 68 61 81 4 13 23 41 43 62 66 70
102 114 117 143 8 15 19 28 24 28 6 0 10 7 10 16 0 9 9 18 20 21 11 3 20 10
20 17 0 6 18 27 40 46 22 19 40 40 40 45 0 6 9 18 20 28 11 9 20 23 20 32 0 8
9 19 20 25 11 6 20 15 20 19 0 5 26 36 58 69 66 69 75 80 92 112 7 12 28 38
46 57 19 18 34 37 34 42 0 4 9 16 20 26 11 10 20 24 20 31 0 21 89 102 125
114 18 6 36 17 39 25 4 10 21 15 53 16 26 0 57 4 68 9 11 5 29 7 40 4 11 -2
42 -7 69 -11z m-1219 -27 c12 -11 32 -31 46 -43 60 -55 64 -62 67 -136 3 -62
0 -79 -21 -120 -31 -58 -105 -137 -128 -137 -9 0 -28 -9 -42 -20 -18 -15 -40
-20 -81 -20 -44 0 -60 4 -73 20 -10 11 -26 20 -37 20 -11 0 -42 23 -68 50
l-48 50 0 119 c0 99 3 122 18 142 10 13 21 32 25 42 3 9 12 17 18 17 7 0 21 8
32 18 21 19 113 29 212 23 45 -2 65 -8 80 -25z m6999 -467 c22 -17 26 -28 26
-70 0 -27 -6 -66 -14 -86 -8 -21 -17 -67 -20 -103 -3 -36 -8 -92 -12 -126 -6
-57 -5 -62 25 -94 17 -19 31 -38 31 -43 0 -5 32 -7 71 -5 54 3 73 8 80 21 6
10 22 17 38 17 15 0 36 9 46 20 14 15 31 20 69 20 32 0 67 -8 91 -20 26 -13
59 -20 100 -20 48 0 64 -4 78 -20 9 -11 29 -20 44 -20 17 0 33 -8 41 -20 7
-11 20 -20 30 -20 10 0 35 -16 56 -35 21 -19 42 -35 47 -35 4 0 11 -9 14 -20
3 -11 15 -20 26 -20 13 0 19 -7 19 -21 0 -11 4 -18 9 -15 12 8 32 -18 34 -43
0 -11 4 -18 9 -15 12 7 29 -34 26 -63 -2 -15 2 -28 7 -28 30 -1 37 -19 32 -72
-3 -29 -2 -51 3 -48 34 21 50 -219 18 -265 -10 -14 -18 -42 -18 -66 0 -28 -6
-46 -20 -59 -11 -10 -20 -26 -20 -36 0 -60 -174 -260 -239 -274 -16 -3 -35
-12 -41 -20 -6 -7 -30 -17 -53 -20 -23 -4 -49 -13 -57 -20 -16 -15 -58 -17
-258 -16 -75 1 -131 5 -128 10 14 22 -24 30 -123 25 -106 -4 -126 -9 -116 -25
4 -5 -46 -9 -123 -9 l-130 0 -7 28 c-4 15 -6 365 -6 777 1 624 -1 758 -13 796
-10 32 -11 50 -4 57 6 6 13 25 17 43 6 30 11 34 51 41 24 4 51 14 59 23 11 11
37 15 97 15 67 0 86 -4 108 -21z m-3187 -39 c14 -11 32 -20 39 -20 12 0 14
-50 14 -282 l0 -281 27 -56 c15 -31 27 -57 29 -59 1 -1 14 3 30 10 26 12 154
132 154 145 0 8 23 32 146 153 200 195 225 222 249 259 46 74 86 108 137 115
26 4 50 12 54 18 5 7 52 8 148 3 205 -11 191 -8 194 -37 3 -22 -6 -32 -50 -62
-29 -19 -152 -135 -273 -256 -121 -122 -243 -237 -271 -255 -58 -40 -143 -119
-166 -155 -9 -14 -19 -43 -22 -65 -6 -38 -5 -42 45 -85 28 -25 140 -135 250
-244 109 -110 199 -195 200 -190 0 5 4 -1 9 -13 5 -13 16 -23 24 -23 7 0 16
-9 19 -20 3 -11 12 -20 21 -20 9 0 16 -8 16 -20 0 -11 4 -20 10 -20 5 0 16
-15 24 -32 25 -58 72 -97 102 -85 4 1 11 -8 15 -21 5 -13 13 -21 18 -18 5 3
14 -1 21 -9 7 -8 9 -15 5 -15 -4 0 -2 -7 5 -15 7 -8 15 -13 19 -11 3 2 7 -11
8 -29 3 -41 -17 -48 -96 -33 -31 6 -104 8 -162 5 -127 -7 -189 0 -189 20 0 7
-11 18 -25 23 -14 5 -24 15 -23 22 2 7 -2 12 -9 13 -15 0 -28 14 -28 28 0 7
-7 12 -15 12 -8 0 -16 9 -18 20 -6 34 -97 137 -294 336 -54 54 -98 103 -98
109 0 15 -39 68 -75 101 -16 16 -38 36 -47 45 -22 22 -62 12 -94 -24 l-23 -27
-1 -322 c0 -207 -4 -324 -10 -328 -6 -4 -8 -10 -5 -14 8 -14 -45 -19 -150 -15
-55 2 -117 4 -137 4 l-38 0 0 852 c0 780 1 853 16 870 15 15 33 18 131 18 100
0 118 -3 140 -20z m4489 -409 c-9 -14 46 -33 114 -38 36 -3 71 -10 79 -16 15
-12 23 -14 102 -23 49 -6 59 -4 78 15 14 14 34 21 59 21 20 0 51 9 67 20 43
29 153 28 178 0 10 -12 21 -19 26 -16 10 7 23 -182 15 -222 -8 -38 -21 -41
-174 -39 -106 1 -119 -1 -171 -26 -76 -38 -116 -77 -125 -122 -9 -50 -30 -91
-37 -73 -3 7 -5 -27 -6 -77 0 -55 4 -82 8 -70 12 29 23 -122 25 -328 1 -173
-7 -253 -25 -242 -5 4 -9 -11 -9 -34 0 -39 0 -40 -42 -45 -57 -6 -164 -6 -213
0 l-40 4 0 632 0 631 23 14 c12 9 22 22 22 29 0 8 11 14 26 14 14 0 23 -4 20
-9z m-2335 -17 c10 -9 37 -18 61 -21 24 -3 51 -14 61 -24 10 -11 28 -19 40
-19 12 0 30 -9 40 -20 9 -11 26 -20 36 -20 11 0 24 -6 28 -14 4 -8 17 -16 28
-18 11 -2 19 -10 17 -16 -1 -7 9 -17 23 -22 14 -5 24 -14 23 -19 -2 -5 1 -9 5
-9 37 0 139 -173 152 -259 4 -23 13 -47 21 -54 21 -17 20 -246 -1 -269 -8 -9
-18 -39 -21 -66 -4 -27 -13 -53 -21 -57 -7 -4 -13 -19 -13 -32 0 -13 -8 -32
-19 -42 -10 -10 -22 -28 -25 -41 -9 -27 -48 -69 -101 -108 -62 -45 -65 -47
-87 -71 -12 -13 -27 -23 -34 -23 -6 0 -17 -7 -24 -15 -7 -8 -28 -17 -49 -21
-20 -4 -43 -12 -51 -19 -8 -7 -40 -16 -70 -20 -30 -4 -64 -14 -75 -21 -26 -19
-152 -18 -185 1 -17 10 -20 15 -10 16 8 2 -19 5 -60 8 -41 3 -73 10 -72 15 6
15 -21 26 -64 26 -33 0 -43 4 -47 20 -4 14 -14 20 -36 20 -27 0 -81 36 -81 55
0 10 -93 100 -105 100 -5 0 -11 10 -13 22 -2 12 -10 23 -19 25 -10 2 -16 16
-18 41 -1 20 -9 45 -18 55 -11 12 -17 36 -17 66 0 27 -8 63 -20 86 -27 53 -27
152 0 211 11 24 20 62 20 84 0 28 6 46 20 58 11 9 20 29 20 44 0 17 8 33 20
41 11 7 20 22 20 34 0 12 7 28 15 37 8 9 34 36 58 61 44 47 84 77 130 97 15 7
27 17 27 23 0 5 13 10 30 10 16 0 37 8 47 19 12 12 37 20 76 23 36 3 64 11 75
21 23 24 237 25 263 1z m3974 -4 c17 -11 45 -20 63 -20 19 0 45 -9 59 -20 14
-11 39 -20 54 -20 16 0 29 -4 29 -9 0 -14 69 -62 92 -64 11 -1 23 -9 26 -19 2
-10 11 -18 18 -18 22 0 104 -92 104 -117 0 -12 9 -27 20 -33 13 -7 20 -21 20
-40 0 -19 7 -33 20 -40 16 -9 20 -21 20 -69 0 -32 7 -75 15 -94 19 -46 19
-154 0 -187 -8 -14 -15 -43 -15 -65 0 -22 -7 -51 -15 -65 -8 -14 -17 -32 -20
-40 -15 -34 -26 -57 -45 -85 -11 -16 -24 -41 -30 -54 -12 -28 -104 -121 -119
-121 -13 0 -91 -52 -91 -61 0 -4 -21 -10 -47 -14 -27 -4 -55 -13 -64 -22 -12
-10 -42 -14 -105 -15 -48 0 -82 -3 -75 -7 17 -11 -20 -21 -76 -21 -48 0 -75 8
-67 21 3 5 -34 9 -84 9 -63 0 -93 4 -101 13 -6 8 -8 17 -4 21 4 3 -7 3 -24 0
-24 -5 -34 -1 -49 18 -10 13 -26 22 -35 20 -15 -3 -74 44 -74 59 0 4 -25 32
-55 61 -30 30 -68 80 -83 111 -16 31 -33 57 -38 59 -5 2 -13 34 -17 71 -5 41
-14 72 -23 78 -22 13 -20 206 4 239 10 15 17 43 17 75 0 27 7 61 15 75 8 14
17 33 21 42 3 9 12 19 20 22 7 3 20 20 27 38 15 36 166 198 184 198 6 0 16 6
22 14 6 7 29 16 51 20 21 3 43 12 47 20 4 7 30 16 57 18 26 3 55 13 64 22 13
13 39 16 137 16 103 0 124 -3 150 -20z"/>
<path d="M10555 10040 c-81 -4 -132 -11 -157 -23 -21 -9 -45 -17 -55 -17 -23
0 -73 -49 -73 -72 0 -11 -7 -33 -16 -50 -13 -26 -14 -37 -4 -73 14 -51 9 -113
-15 -175 -21 -55 -16 -152 10 -181 10 -10 19 -30 21 -45 4 -36 40 -72 80 -80
18 -3 35 -12 38 -20 4 -11 35 -14 149 -14 130 0 146 2 167 20 13 11 34 20 48
20 25 0 39 10 90 64 64 69 72 80 72 105 0 14 9 40 20 56 17 25 20 47 20 133 0
89 -3 105 -20 122 -11 11 -20 29 -20 40 0 21 -90 120 -108 120 -5 0 -12 9 -15
21 -5 17 -11 20 -35 15 -20 -5 -33 -2 -42 9 -7 8 -9 15 -4 15 5 0 2 5 -6 10
-8 5 -17 9 -20 8 -3 -1 -59 -4 -125 -8z"/>
<path d="M9025 10071 c8 -14 -36 -31 -81 -31 -21 0 -37 -6 -40 -14 -3 -8 -19
-18 -35 -21 -30 -7 -119 -99 -119 -124 0 -7 -9 -28 -20 -46 -17 -28 -20 -51
-21 -176 -1 -177 -3 -166 20 -172 14 -3 17 -11 14 -29 -3 -18 7 -35 48 -76 31
-31 61 -52 74 -52 12 0 30 -9 40 -20 16 -18 31 -20 147 -20 103 0 130 3 134
14 3 8 19 18 35 21 26 6 76 50 144 125 8 9 17 34 21 57 3 23 13 44 20 47 20 8
20 219 0 235 -7 6 -16 28 -19 47 -4 20 -13 44 -22 53 -8 9 -27 31 -41 49 -14
17 -32 32 -40 32 -8 0 -14 7 -14 15 0 9 -8 19 -17 22 -10 4 -24 15 -32 26 -10
15 -21 17 -47 13 -40 -8 -84 2 -81 18 1 6 -14 12 -37 14 -25 2 -36 0 -31 -7z"/>
<path d="M12991 10042 c-55 -2 -80 -8 -99 -22 -14 -11 -32 -20 -41 -20 -28 -1
-95 -73 -122 -132 -5 -13 -16 -34 -24 -48 -11 -18 -15 -59 -15 -145 0 -103 3
-124 20 -150 11 -16 20 -42 20 -57 0 -55 71 -128 139 -143 16 -3 35 -13 42
-21 17 -20 247 -21 255 0 3 8 23 17 45 21 21 4 39 11 39 16 0 6 16 17 35 25
24 10 37 23 41 42 4 15 16 33 26 40 12 9 18 26 18 55 0 30 6 48 20 60 18 15
20 29 20 122 0 93 -2 107 -20 122 -11 10 -20 28 -20 41 0 13 -17 40 -40 64
-22 23 -40 46 -40 50 0 4 -6 8 -13 8 -7 0 -18 9 -25 20 -7 11 -19 20 -27 20
-8 0 -18 8 -23 17 -10 18 -59 21 -211 15z"/>
</g>
</svg>
